<svg xmlns="http://www.w3.org/2000/svg" xmlns:xlink="http://www.w3.org/1999/xlink" width="500" zoomAndPan="magnify" viewBox="0 0 375 374.999991" height="500" preserveAspectRatio="xMidYMid meet" version="1.0"><defs><g/><clipPath id="9bfa212c7e"><path d="M 105.867188 117 L 196 117 L 196 201 L 105.867188 201 Z M 105.867188 117 " clip-rule="nonzero"/></clipPath><clipPath id="f4ceaf751c"><path d="M 162 96 L 269.367188 96 L 269.367188 216 L 162 216 Z M 162 96 " clip-rule="nonzero"/></clipPath></defs><rect x="-37.5" width="450" fill="#ffffff" y="-37.499999" height="449.999989" fill-opacity="1"/><rect x="-37.5" width="450" fill="#ffffff" y="-37.499999" height="449.999989" fill-opacity="1"/><g clip-path="url(#9bfa212c7e)"><path fill="#f9bb4a" d="M 169.820312 133.355469 C 180.886719 130.746094 192.007812 137.625 194.621094 148.722656 C 197.179688 159.761719 190.339844 170.855469 179.21875 173.464844 C 168.152344 176.070312 157.027344 169.191406 154.414062 158.097656 C 151.800781 147.058594 158.695312 135.960938 169.820312 133.355469 Z M 134.003906 200.367188 C 118.488281 200.367188 105.867188 187.777344 105.867188 172.296875 C 105.867188 160.539062 113.09375 150.441406 123.382812 146.28125 C 122.714844 144.117188 122.328125 141.84375 122.328125 139.511719 C 122.328125 127.476562 132.113281 117.710938 144.183594 117.710938 C 149.355469 117.710938 154.136719 119.488281 157.863281 122.480469 C 144.183594 129.804688 136.5625 145.613281 140.234375 161.425781 C 142.792969 172.132812 156.363281 187.609375 168.761719 200.367188 Z M 134.003906 200.367188 " fill-opacity="1" fill-rule="evenodd"/></g><g clip-path="url(#f4ceaf751c)"><path fill="#2cbeb1" d="M 162.535156 120.429688 C 169.765625 106.226562 184.613281 96.464844 201.683594 96.464844 C 225.652344 96.464844 245.117188 115.601562 245.617188 139.402344 C 259.242188 142.621094 269.367188 154.878906 269.367188 169.46875 C 269.367188 186.554688 255.519531 200.367188 238.390625 200.367188 L 213.699219 200.367188 L 192.789062 215.625 C 198.238281 199.925781 212.640625 161.757812 208.75 145.394531 C 204.300781 126.53125 185.390625 114.828125 166.484375 119.265625 C 165.09375 119.542969 163.8125 119.929688 162.535156 120.429688 Z M 162.535156 120.429688 " fill-opacity="1" fill-rule="evenodd"/></g><g fill="#323232" fill-opacity="1"><g transform="translate(89.211392, 252.182722)"><g><path d="M 24.34375 0 L 17.796875 0 L 15.84375 -8.921875 C 15.75 -9.296875 15.597656 -10.039062 15.390625 -11.15625 C 15.191406 -12.269531 15.046875 -13.195312 14.953125 -13.9375 C 14.878906 -13.332031 14.757812 -12.578125 14.59375 -11.671875 C 14.425781 -10.773438 14.257812 -9.945312 14.09375 -9.1875 C 13.925781 -8.4375 13.242188 -5.375 12.046875 0 L 5.515625 0 L 0.4375 -20.484375 L 5.78125 -20.484375 L 8 -10.21875 C 8.507812 -7.945312 8.859375 -6.140625 9.046875 -4.796875 C 9.160156 -5.742188 9.375 -7.035156 9.6875 -8.671875 C 10 -10.304688 10.289062 -11.660156 10.5625 -12.734375 L 12.375 -20.484375 L 17.5 -20.484375 L 19.25 -12.734375 C 19.550781 -11.492188 19.851562 -10.0625 20.15625 -8.4375 C 20.46875 -6.8125 20.675781 -5.597656 20.78125 -4.796875 C 20.90625 -5.828125 21.238281 -7.625 21.78125 -10.1875 L 24.046875 -20.484375 L 29.390625 -20.484375 Z M 24.34375 0 "/></g></g></g><g fill="#323232" fill-opacity="1"><g transform="translate(123.050273, 252.182722)"><g><path d="M 14.78125 0 L 13.78125 -3.84375 L 7.125 -3.84375 L 6.078125 0 L 0 0 L 6.6875 -20.578125 L 14.078125 -20.578125 L 20.84375 0 Z M 12.625 -8.375 L 11.75 -11.75 C 11.539062 -12.488281 11.285156 -13.453125 10.984375 -14.640625 C 10.691406 -15.828125 10.5 -16.679688 10.40625 -17.203125 C 10.320312 -16.722656 10.15625 -15.9375 9.90625 -14.84375 C 9.664062 -13.75 9.117188 -11.59375 8.265625 -8.375 Z M 12.625 -8.375 "/></g></g></g><g fill="#323232" fill-opacity="1"><g transform="translate(147.906642, 252.182722)"><g><path d="M 2.21875 0 L 2.21875 -20.484375 L 7.75 -20.484375 L 7.75 -4.46875 L 15.640625 -4.46875 L 15.640625 0 Z M 2.21875 0 "/></g></g></g><g fill="#323232" fill-opacity="1"><g transform="translate(168.629081, 252.182722)"><g><path d="M 19.71875 0 L 13.46875 0 L 9.421875 -7.828125 L 7.78125 -6.859375 L 7.78125 0 L 2.21875 0 L 2.21875 -20.484375 L 7.78125 -20.484375 L 7.78125 -11.59375 C 8.0625 -12.144531 8.625 -13.019531 9.46875 -14.21875 L 13.78125 -20.484375 L 19.828125 -20.484375 L 13.375 -11.3125 Z M 19.71875 0 "/></g></g></g><g fill="#323232" fill-opacity="1"><g transform="translate(192.364389, 252.182722)"><g/></g></g><g fill="#323232" fill-opacity="1"><g transform="translate(203.838063, 252.182722)"><g><path d="M 14.375 0 L 2.21875 0 L 2.21875 -20.484375 L 14.375 -20.484375 L 14.375 -16.046875 L 7.75 -16.046875 L 7.75 -12.828125 L 13.890625 -12.828125 L 13.890625 -8.375 L 7.75 -8.375 L 7.75 -4.515625 L 14.375 -4.515625 Z M 14.375 0 "/></g></g></g><g fill="#323232" fill-opacity="1"><g transform="translate(223.607604, 252.182722)"><g><path d="M 14.78125 0 L 13.78125 -3.84375 L 7.125 -3.84375 L 6.078125 0 L 0 0 L 6.6875 -20.578125 L 14.078125 -20.578125 L 20.84375 0 Z M 12.625 -8.375 L 11.75 -11.75 C 11.539062 -12.488281 11.285156 -13.453125 10.984375 -14.640625 C 10.691406 -15.828125 10.5 -16.679688 10.40625 -17.203125 C 10.320312 -16.722656 10.15625 -15.9375 9.90625 -14.84375 C 9.664062 -13.75 9.117188 -11.59375 8.265625 -8.375 Z M 12.625 -8.375 "/></g></g></g><g fill="#323232" fill-opacity="1"><g transform="translate(248.463975, 252.182722)"><g><path d="M 16.8125 0 L 0.859375 0 L 0.859375 -3.421875 L 9.71875 -16.015625 L 1.0625 -16.015625 L 1.0625 -20.484375 L 16.59375 -20.484375 L 16.59375 -17.078125 L 7.71875 -4.46875 L 16.8125 -4.46875 Z M 16.8125 0 "/></g></g></g><g fill="#323232" fill-opacity="1"><g transform="translate(270.01321, 252.182722)"><g><path d="M 14.375 0 L 2.21875 0 L 2.21875 -20.484375 L 14.375 -20.484375 L 14.375 -16.046875 L 7.75 -16.046875 L 7.75 -12.828125 L 13.890625 -12.828125 L 13.890625 -8.375 L 7.75 -8.375 L 7.75 -4.515625 L 14.375 -4.515625 Z M 14.375 0 "/></g></g></g><g fill="#323232" fill-opacity="1"><g transform="translate(92.750096, 277.970987)"><g><path d="M 4.265625 0 L 3.15625 0 L 3.15625 -8.578125 L 0.125 -8.578125 L 0.125 -9.5625 L 7.296875 -9.5625 L 7.296875 -8.578125 L 4.265625 -8.578125 Z M 4.265625 0 "/></g></g></g><g fill="#323232" fill-opacity="1"><g transform="translate(104.606489, 277.970987)"><g><path d="M 7.328125 0 L 6.140625 -3.046875 L 2.296875 -3.046875 L 1.125 0 L 0 0 L 3.78125 -9.609375 L 4.71875 -9.609375 L 8.484375 0 Z M 5.796875 -4.046875 L 4.6875 -7.015625 C 4.539062 -7.390625 4.390625 -7.847656 4.234375 -8.390625 C 4.140625 -7.972656 4.003906 -7.515625 3.828125 -7.015625 L 2.703125 -4.046875 Z M 5.796875 -4.046875 "/></g></g></g><g fill="#323232" fill-opacity="1"><g transform="translate(117.529883, 277.970987)"><g><path d="M 1.3125 0 L 1.3125 -9.5625 L 2.421875 -9.5625 L 2.421875 0 Z M 1.3125 0 "/></g></g></g><g fill="#323232" fill-opacity="1"><g transform="translate(125.707413, 277.970987)"><g><path d="M 1.3125 0 L 1.3125 -9.5625 L 2.421875 -9.5625 L 2.421875 -1.015625 L 6.65625 -1.015625 L 6.65625 0 Z M 1.3125 0 "/></g></g></g><g fill="#323232" fill-opacity="1"><g transform="translate(137.105585, 277.970987)"><g><path d="M 9.625 -4.796875 C 9.625 -3.265625 9.234375 -2.0625 8.453125 -1.1875 C 7.679688 -0.3125 6.609375 0.125 5.234375 0.125 C 3.816406 0.125 2.722656 -0.300781 1.953125 -1.15625 C 1.191406 -2.019531 0.8125 -3.238281 0.8125 -4.8125 C 0.8125 -6.363281 1.195312 -7.566406 1.96875 -8.421875 C 2.738281 -9.285156 3.832031 -9.71875 5.25 -9.71875 C 6.625 -9.71875 7.695312 -9.28125 8.46875 -8.40625 C 9.238281 -7.539062 9.625 -6.335938 9.625 -4.796875 Z M 2 -4.796875 C 2 -3.503906 2.273438 -2.519531 2.828125 -1.84375 C 3.378906 -1.175781 4.179688 -0.84375 5.234375 -0.84375 C 6.296875 -0.84375 7.09375 -1.175781 7.625 -1.84375 C 8.164062 -2.507812 8.4375 -3.492188 8.4375 -4.796875 C 8.4375 -6.085938 8.164062 -7.0625 7.625 -7.71875 C 7.09375 -8.382812 6.300781 -8.71875 5.25 -8.71875 C 4.1875 -8.71875 3.378906 -8.382812 2.828125 -7.71875 C 2.273438 -7.050781 2 -6.078125 2 -4.796875 Z M 2 -4.796875 "/></g></g></g><g fill="#323232" fill-opacity="1"><g transform="translate(151.986239, 277.970987)"><g><path d="M 2.421875 -3.984375 L 2.421875 0 L 1.3125 0 L 1.3125 -9.5625 L 3.9375 -9.5625 C 5.113281 -9.5625 5.984375 -9.335938 6.546875 -8.890625 C 7.109375 -8.441406 7.390625 -7.765625 7.390625 -6.859375 C 7.390625 -5.597656 6.742188 -4.742188 5.453125 -4.296875 L 8.0625 0 L 6.75 0 L 4.421875 -3.984375 Z M 2.421875 -4.9375 L 3.953125 -4.9375 C 4.734375 -4.9375 5.304688 -5.09375 5.671875 -5.40625 C 6.046875 -5.71875 6.234375 -6.1875 6.234375 -6.8125 C 6.234375 -7.4375 6.046875 -7.890625 5.671875 -8.171875 C 5.296875 -8.453125 4.695312 -8.59375 3.875 -8.59375 L 2.421875 -8.59375 Z M 2.421875 -4.9375 "/></g></g></g><g fill="#323232" fill-opacity="1"><g transform="translate(164.713253, 277.970987)"><g><path d="M 6.65625 0 L 1.3125 0 L 1.3125 -9.5625 L 6.65625 -9.5625 L 6.65625 -8.578125 L 2.421875 -8.578125 L 2.421875 -5.5 L 6.390625 -5.5 L 6.390625 -4.515625 L 2.421875 -4.515625 L 2.421875 -1 L 6.65625 -1 Z M 6.65625 0 "/></g></g></g><g fill="#323232" fill-opacity="1"><g transform="translate(176.608922, 277.970987)"><g><path d="M 8.953125 -4.875 C 8.953125 -3.289062 8.519531 -2.082031 7.65625 -1.25 C 6.800781 -0.414062 5.570312 0 3.96875 0 L 1.3125 0 L 1.3125 -9.5625 L 4.25 -9.5625 C 5.738281 -9.5625 6.894531 -9.148438 7.71875 -8.328125 C 8.539062 -7.503906 8.953125 -6.351562 8.953125 -4.875 Z M 7.78125 -4.84375 C 7.78125 -6.082031 7.460938 -7.019531 6.828125 -7.65625 C 6.203125 -8.289062 5.273438 -8.609375 4.046875 -8.609375 L 2.421875 -8.609375 L 2.421875 -0.96875 L 3.78125 -0.96875 C 5.113281 -0.96875 6.113281 -1.289062 6.78125 -1.9375 C 7.445312 -2.59375 7.78125 -3.5625 7.78125 -4.84375 Z M 7.78125 -4.84375 "/></g></g></g><g fill="#323232" fill-opacity="1"><g transform="translate(190.821883, 277.970987)"><g/></g></g><g fill="#323232" fill-opacity="1"><g transform="translate(198.744123, 277.970987)"><g><path d="M 2.421875 0 L 1.3125 0 L 1.3125 -9.5625 L 6.65625 -9.5625 L 6.65625 -8.578125 L 2.421875 -8.578125 L 2.421875 -5.078125 L 6.390625 -5.078125 L 6.390625 -4.09375 L 2.421875 -4.09375 Z M 2.421875 0 "/></g></g></g><g fill="#323232" fill-opacity="1"><g transform="translate(210.103024, 277.970987)"><g><path d="M 9.625 -4.796875 C 9.625 -3.265625 9.234375 -2.0625 8.453125 -1.1875 C 7.679688 -0.3125 6.609375 0.125 5.234375 0.125 C 3.816406 0.125 2.722656 -0.300781 1.953125 -1.15625 C 1.191406 -2.019531 0.8125 -3.238281 0.8125 -4.8125 C 0.8125 -6.363281 1.195312 -7.566406 1.96875 -8.421875 C 2.738281 -9.285156 3.832031 -9.71875 5.25 -9.71875 C 6.625 -9.71875 7.695312 -9.28125 8.46875 -8.40625 C 9.238281 -7.539062 9.625 -6.335938 9.625 -4.796875 Z M 2 -4.796875 C 2 -3.503906 2.273438 -2.519531 2.828125 -1.84375 C 3.378906 -1.175781 4.179688 -0.84375 5.234375 -0.84375 C 6.296875 -0.84375 7.09375 -1.175781 7.625 -1.84375 C 8.164062 -2.507812 8.4375 -3.492188 8.4375 -4.796875 C 8.4375 -6.085938 8.164062 -7.0625 7.625 -7.71875 C 7.09375 -8.382812 6.300781 -8.71875 5.25 -8.71875 C 4.1875 -8.71875 3.378906 -8.382812 2.828125 -7.71875 C 2.273438 -7.050781 2 -6.078125 2 -4.796875 Z M 2 -4.796875 "/></g></g></g><g fill="#323232" fill-opacity="1"><g transform="translate(224.983684, 277.970987)"><g><path d="M 2.421875 -3.984375 L 2.421875 0 L 1.3125 0 L 1.3125 -9.5625 L 3.9375 -9.5625 C 5.113281 -9.5625 5.984375 -9.335938 6.546875 -8.890625 C 7.109375 -8.441406 7.390625 -7.765625 7.390625 -6.859375 C 7.390625 -5.597656 6.742188 -4.742188 5.453125 -4.296875 L 8.0625 0 L 6.75 0 L 4.421875 -3.984375 Z M 2.421875 -4.9375 L 3.953125 -4.9375 C 4.734375 -4.9375 5.304688 -5.09375 5.671875 -5.40625 C 6.046875 -5.71875 6.234375 -6.1875 6.234375 -6.8125 C 6.234375 -7.4375 6.046875 -7.890625 5.671875 -8.171875 C 5.296875 -8.453125 4.695312 -8.59375 3.875 -8.59375 L 2.421875 -8.59375 Z M 2.421875 -4.9375 "/></g></g></g><g fill="#323232" fill-opacity="1"><g transform="translate(237.710703, 277.970987)"><g/></g></g><g fill="#323232" fill-opacity="1"><g transform="translate(245.632944, 277.970987)"><g><path d="M 3.75 -4.78125 L 6.296875 -9.5625 L 7.515625 -9.5625 L 4.3125 -3.71875 L 4.3125 0 L 3.1875 0 L 3.1875 -3.65625 L 0 -9.5625 L 1.21875 -9.5625 Z M 3.75 -4.78125 "/></g></g></g><g fill="#323232" fill-opacity="1"><g transform="translate(257.580987, 277.970987)"><g><path d="M 9.625 -4.796875 C 9.625 -3.265625 9.234375 -2.0625 8.453125 -1.1875 C 7.679688 -0.3125 6.609375 0.125 5.234375 0.125 C 3.816406 0.125 2.722656 -0.300781 1.953125 -1.15625 C 1.191406 -2.019531 0.8125 -3.238281 0.8125 -4.8125 C 0.8125 -6.363281 1.195312 -7.566406 1.96875 -8.421875 C 2.738281 -9.285156 3.832031 -9.71875 5.25 -9.71875 C 6.625 -9.71875 7.695312 -9.28125 8.46875 -8.40625 C 9.238281 -7.539062 9.625 -6.335938 9.625 -4.796875 Z M 2 -4.796875 C 2 -3.503906 2.273438 -2.519531 2.828125 -1.84375 C 3.378906 -1.175781 4.179688 -0.84375 5.234375 -0.84375 C 6.296875 -0.84375 7.09375 -1.175781 7.625 -1.84375 C 8.164062 -2.507812 8.4375 -3.492188 8.4375 -4.796875 C 8.4375 -6.085938 8.164062 -7.0625 7.625 -7.71875 C 7.09375 -8.382812 6.300781 -8.71875 5.25 -8.71875 C 4.1875 -8.71875 3.378906 -8.382812 2.828125 -7.71875 C 2.273438 -7.050781 2 -6.078125 2 -4.796875 Z M 2 -4.796875 "/></g></g></g><g fill="#323232" fill-opacity="1"><g transform="translate(272.461647, 277.970987)"><g><path d="M 8.546875 -9.5625 L 8.546875 -3.375 C 8.546875 -2.28125 8.210938 -1.421875 7.546875 -0.796875 C 6.890625 -0.179688 5.988281 0.125 4.84375 0.125 C 3.6875 0.125 2.789062 -0.1875 2.15625 -0.8125 C 1.53125 -1.4375 1.21875 -2.300781 1.21875 -3.40625 L 1.21875 -9.5625 L 2.328125 -9.5625 L 2.328125 -3.328125 C 2.328125 -2.523438 2.546875 -1.910156 2.984375 -1.484375 C 3.421875 -1.054688 4.0625 -0.84375 4.90625 -0.84375 C 5.71875 -0.84375 6.34375 -1.054688 6.78125 -1.484375 C 7.21875 -1.921875 7.4375 -2.539062 7.4375 -3.34375 L 7.4375 -9.5625 Z M 8.546875 -9.5625 "/></g></g></g></svg>