<svg xmlns="http://www.w3.org/2000/svg" xmlns:xlink="http://www.w3.org/1999/xlink" zoomAndPan="magnify" preserveAspectRatio="xMidYMid meet" version="1.0" viewBox="17.22 126 293.82 95"><defs><g/><clipPath id="535147023e"><path d="M 17.222656 143 L 88 143 L 88 209 L 17.222656 209 Z M 17.222656 143 " clip-rule="nonzero"/></clipPath><clipPath id="89928bc254"><path d="M 61 126 L 146.222656 126 L 146.222656 221 L 61 221 Z M 61 126 " clip-rule="nonzero"/></clipPath></defs><g clip-path="url(#535147023e)"><path fill="#ffffff" d="M 67.613281 155.398438 C 76.332031 153.339844 85.097656 158.773438 87.15625 167.535156 C 89.171875 176.257812 83.78125 185.019531 75.019531 187.078125 C 66.300781 189.140625 57.535156 183.707031 55.476562 174.941406 C 53.417969 166.222656 58.851562 157.457031 67.613281 155.398438 Z M 39.394531 208.332031 C 27.167969 208.332031 17.222656 198.382812 17.222656 186.160156 C 17.222656 176.871094 22.917969 168.894531 31.027344 165.609375 C 30.5 163.898438 30.191406 162.105469 30.191406 160.261719 C 30.191406 150.753906 37.90625 143.042969 47.414062 143.042969 C 51.488281 143.042969 55.257812 144.445312 58.191406 146.8125 C 47.414062 152.59375 41.410156 165.082031 44.300781 177.570312 C 46.316406 186.027344 57.007812 198.253906 66.78125 208.332031 Z M 39.394531 208.332031 " fill-opacity="1" fill-rule="evenodd"/></g><g clip-path="url(#89928bc254)"><path fill="#ffffff" d="M 61.875 145.191406 C 67.570312 133.972656 79.269531 126.261719 92.722656 126.261719 C 111.605469 126.261719 126.941406 141.378906 127.335938 160.175781 C 138.074219 162.71875 146.046875 172.402344 146.046875 183.925781 C 146.046875 197.421875 135.136719 208.332031 121.640625 208.332031 L 102.1875 208.332031 L 85.710938 220.382812 C 90.003906 207.980469 101.351562 177.835938 98.285156 164.90625 C 94.78125 150.011719 79.882812 140.765625 64.984375 144.269531 C 63.890625 144.488281 62.882812 144.796875 61.875 145.191406 Z M 61.875 145.191406 " fill-opacity="1" fill-rule="evenodd"/></g><g fill="#ffffff" fill-opacity="1"><g transform="translate(160.836116, 181.620398)"><g><path d="M 17.9375 0 L 11.9375 0 L 5.765625 -11.921875 L 5.65625 -11.921875 C 5.800781 -10.046875 5.875 -8.613281 5.875 -7.625 L 5.875 0 L 1.828125 0 L 1.828125 -16.921875 L 7.796875 -16.921875 L 13.953125 -5.15625 L 14.03125 -5.15625 C 13.914062 -6.863281 13.859375 -8.234375 13.859375 -9.265625 L 13.859375 -16.921875 L 17.9375 -16.921875 Z M 17.9375 0 "/></g></g></g><g fill="#ffffff" fill-opacity="1"><g transform="translate(183.916255, 181.620398)"><g><path d="M 17.65625 -8.484375 C 17.65625 -5.640625 16.957031 -3.472656 15.5625 -1.984375 C 14.164062 -0.503906 12.125 0.234375 9.4375 0.234375 C 6.78125 0.234375 4.742188 -0.507812 3.328125 -2 C 1.910156 -3.488281 1.203125 -5.65625 1.203125 -8.5 C 1.203125 -11.320312 1.90625 -13.472656 3.3125 -14.953125 C 4.71875 -16.441406 6.765625 -17.1875 9.453125 -17.1875 C 12.148438 -17.1875 14.191406 -16.445312 15.578125 -14.96875 C 16.960938 -13.5 17.65625 -11.335938 17.65625 -8.484375 Z M 6.015625 -8.484375 C 6.015625 -5.210938 7.15625 -3.578125 9.4375 -3.578125 C 10.59375 -3.578125 11.445312 -3.972656 12 -4.765625 C 12.5625 -5.554688 12.84375 -6.796875 12.84375 -8.484375 C 12.84375 -10.171875 12.554688 -11.414062 11.984375 -12.21875 C 11.421875 -13.03125 10.578125 -13.4375 9.453125 -13.4375 C 7.160156 -13.4375 6.015625 -11.785156 6.015625 -8.484375 Z M 6.015625 -8.484375 "/></g></g></g><g fill="#ffffff" fill-opacity="1"><g transform="translate(206.117075, 181.620398)"><g><path d="M 9.296875 0 L 4.71875 0 L 4.71875 -13.1875 L 0.59375 -13.1875 L 0.59375 -16.921875 L 13.40625 -16.921875 L 13.40625 -13.1875 L 9.296875 -13.1875 Z M 9.296875 0 "/></g></g></g><g fill="#ffffff" fill-opacity="1"><g transform="translate(223.435363, 181.620398)"><g/></g></g><g fill="#ffffff" fill-opacity="1"><g transform="translate(232.909211, 181.620398)"><g><path d="M 20.109375 0 L 14.703125 0 L 13.078125 -7.375 C 13.003906 -7.675781 12.882812 -8.285156 12.71875 -9.203125 C 12.550781 -10.128906 12.425781 -10.898438 12.34375 -11.515625 C 12.28125 -11.015625 12.179688 -10.390625 12.046875 -9.640625 C 11.910156 -8.898438 11.773438 -8.21875 11.640625 -7.59375 C 11.503906 -6.96875 10.941406 -4.4375 9.953125 0 L 4.546875 0 L 0.359375 -16.921875 L 4.765625 -16.921875 L 6.609375 -8.4375 C 7.023438 -6.5625 7.3125 -5.066406 7.46875 -3.953125 C 7.5625 -4.742188 7.738281 -5.8125 8 -7.15625 C 8.257812 -8.507812 8.503906 -9.628906 8.734375 -10.515625 L 10.21875 -16.921875 L 14.453125 -16.921875 L 15.90625 -10.515625 C 16.144531 -9.492188 16.390625 -8.3125 16.640625 -6.96875 C 16.898438 -5.625 17.070312 -4.617188 17.15625 -3.953125 C 17.257812 -4.816406 17.535156 -6.304688 17.984375 -8.421875 L 19.859375 -16.921875 L 24.265625 -16.921875 Z M 20.109375 0 "/></g></g></g><g fill="#ffffff" fill-opacity="1"><g transform="translate(260.84874, 181.620398)"><g><path d="M 12.203125 0 L 11.375 -3.171875 L 5.875 -3.171875 L 5.015625 0 L 0 0 L 5.515625 -16.984375 L 11.625 -16.984375 L 17.203125 0 Z M 10.421875 -6.921875 L 9.703125 -9.703125 C 9.523438 -10.316406 9.316406 -11.113281 9.078125 -12.09375 C 8.835938 -13.070312 8.675781 -13.773438 8.59375 -14.203125 C 8.53125 -13.804688 8.394531 -13.15625 8.1875 -12.25 C 7.976562 -11.351562 7.523438 -9.578125 6.828125 -6.921875 Z M 10.421875 -6.921875 "/></g></g></g><g fill="#ffffff" fill-opacity="1"><g transform="translate(281.371909, 181.620398)"><g><path d="M 13.890625 0 L 0.703125 0 L 0.703125 -2.828125 L 8.03125 -13.234375 L 0.875 -13.234375 L 0.875 -16.921875 L 13.703125 -16.921875 L 13.703125 -14.109375 L 6.375 -3.6875 L 13.890625 -3.6875 Z M 13.890625 0 "/></g></g></g><g fill="#ffffff" fill-opacity="1"><g transform="translate(299.164564, 181.620398)"><g><path d="M 11.875 0 L 1.828125 0 L 1.828125 -16.921875 L 11.875 -16.921875 L 11.875 -13.25 L 6.40625 -13.25 L 6.40625 -10.59375 L 11.46875 -10.59375 L 11.46875 -6.921875 L 6.40625 -6.921875 L 6.40625 -3.734375 L 11.875 -3.734375 Z M 11.875 0 "/></g></g></g><g fill="#ffffff" fill-opacity="1"><g transform="translate(160.836116, 203.819459)"><g><path d="M 3.3125 0 L 2.4375 0 L 2.4375 -6.65625 L 0.09375 -6.65625 L 0.09375 -7.421875 L 5.65625 -7.421875 L 5.65625 -6.65625 L 3.3125 -6.65625 Z M 3.3125 0 "/></g></g></g><g fill="#ffffff" fill-opacity="1"><g transform="translate(170.039866, 203.819459)"><g><path d="M 5.6875 0 L 4.765625 -2.359375 L 1.78125 -2.359375 L 0.875 0 L 0 0 L 2.9375 -7.453125 L 3.65625 -7.453125 L 6.578125 0 Z M 4.5 -3.140625 L 3.640625 -5.4375 C 3.523438 -5.726562 3.40625 -6.085938 3.28125 -6.515625 C 3.207031 -6.191406 3.101562 -5.832031 2.96875 -5.4375 L 2.09375 -3.140625 Z M 4.5 -3.140625 "/></g></g></g><g fill="#ffffff" fill-opacity="1"><g transform="translate(180.071848, 203.819459)"><g><path d="M 1.015625 0 L 1.015625 -7.421875 L 1.890625 -7.421875 L 1.890625 0 Z M 1.015625 0 "/></g></g></g><g fill="#ffffff" fill-opacity="1"><g transform="translate(186.419977, 203.819459)"><g><path d="M 1.015625 0 L 1.015625 -7.421875 L 1.890625 -7.421875 L 1.890625 -0.78125 L 5.15625 -0.78125 L 5.15625 0 Z M 1.015625 0 "/></g></g></g><g fill="#ffffff" fill-opacity="1"><g transform="translate(195.268045, 203.819459)"><g><path d="M 7.46875 -3.71875 C 7.46875 -2.53125 7.164062 -1.59375 6.5625 -0.90625 C 5.96875 -0.226562 5.132812 0.109375 4.0625 0.109375 C 2.96875 0.109375 2.125 -0.222656 1.53125 -0.890625 C 0.9375 -1.566406 0.640625 -2.515625 0.640625 -3.734375 C 0.640625 -4.941406 0.9375 -5.878906 1.53125 -6.546875 C 2.125 -7.210938 2.96875 -7.546875 4.0625 -7.546875 C 5.132812 -7.546875 5.96875 -7.207031 6.5625 -6.53125 C 7.164062 -5.851562 7.46875 -4.914062 7.46875 -3.71875 Z M 1.546875 -3.71875 C 1.546875 -2.71875 1.757812 -1.957031 2.1875 -1.4375 C 2.613281 -0.914062 3.238281 -0.65625 4.0625 -0.65625 C 4.882812 -0.65625 5.503906 -0.910156 5.921875 -1.421875 C 6.347656 -1.941406 6.5625 -2.707031 6.5625 -3.71875 C 6.5625 -4.71875 6.347656 -5.472656 5.921875 -5.984375 C 5.503906 -6.503906 4.882812 -6.765625 4.0625 -6.765625 C 3.238281 -6.765625 2.613281 -6.503906 2.1875 -5.984375 C 1.757812 -5.472656 1.546875 -4.71875 1.546875 -3.71875 Z M 1.546875 -3.71875 "/></g></g></g><g fill="#ffffff" fill-opacity="1"><g transform="translate(206.819298, 203.819459)"><g><path d="M 1.890625 -3.09375 L 1.890625 0 L 1.015625 0 L 1.015625 -7.421875 L 3.0625 -7.421875 C 3.96875 -7.421875 4.640625 -7.242188 5.078125 -6.890625 C 5.515625 -6.546875 5.734375 -6.023438 5.734375 -5.328125 C 5.734375 -4.347656 5.234375 -3.6875 4.234375 -3.34375 L 6.25 0 L 5.234375 0 L 3.4375 -3.09375 Z M 1.890625 -3.828125 L 3.0625 -3.828125 C 3.675781 -3.828125 4.125 -3.945312 4.40625 -4.1875 C 4.695312 -4.4375 4.84375 -4.800781 4.84375 -5.28125 C 4.84375 -5.769531 4.695312 -6.125 4.40625 -6.34375 C 4.113281 -6.5625 3.648438 -6.671875 3.015625 -6.671875 L 1.890625 -6.671875 Z M 1.890625 -3.828125 "/></g></g></g><g fill="#ffffff" fill-opacity="1"><g transform="translate(216.698845, 203.819459)"><g><path d="M 5.15625 0 L 1.015625 0 L 1.015625 -7.421875 L 5.15625 -7.421875 L 5.15625 -6.65625 L 1.890625 -6.65625 L 1.890625 -4.265625 L 4.96875 -4.265625 L 4.96875 -3.5 L 1.890625 -3.5 L 1.890625 -0.765625 L 5.15625 -0.765625 Z M 5.15625 0 "/></g></g></g><g fill="#ffffff" fill-opacity="1"><g transform="translate(225.933082, 203.819459)"><g><path d="M 6.953125 -3.78125 C 6.953125 -2.5625 6.617188 -1.625 5.953125 -0.96875 C 5.285156 -0.320312 4.328125 0 3.078125 0 L 1.015625 0 L 1.015625 -7.421875 L 3.296875 -7.421875 C 4.453125 -7.421875 5.347656 -7.101562 5.984375 -6.46875 C 6.628906 -5.832031 6.953125 -4.9375 6.953125 -3.78125 Z M 6.03125 -3.75 C 6.03125 -4.71875 5.785156 -5.445312 5.296875 -5.9375 C 4.816406 -6.4375 4.097656 -6.6875 3.140625 -6.6875 L 1.890625 -6.6875 L 1.890625 -0.75 L 2.9375 -0.75 C 3.96875 -0.75 4.738281 -1 5.25 -1.5 C 5.769531 -2.007812 6.03125 -2.757812 6.03125 -3.75 Z M 6.03125 -3.75 "/></g></g></g><g fill="#ffffff" fill-opacity="1"><g transform="translate(236.966055, 203.819459)"><g/></g></g><g fill="#ffffff" fill-opacity="1"><g transform="translate(243.116018, 203.819459)"><g><path d="M 1.890625 0 L 1.015625 0 L 1.015625 -7.421875 L 5.15625 -7.421875 L 5.15625 -6.65625 L 1.890625 -6.65625 L 1.890625 -3.9375 L 4.96875 -3.9375 L 4.96875 -3.171875 L 1.890625 -3.171875 Z M 1.890625 0 "/></g></g></g><g fill="#ffffff" fill-opacity="1"><g transform="translate(251.933599, 203.819459)"><g><path d="M 7.46875 -3.71875 C 7.46875 -2.53125 7.164062 -1.59375 6.5625 -0.90625 C 5.96875 -0.226562 5.132812 0.109375 4.0625 0.109375 C 2.96875 0.109375 2.125 -0.222656 1.53125 -0.890625 C 0.9375 -1.566406 0.640625 -2.515625 0.640625 -3.734375 C 0.640625 -4.941406 0.9375 -5.878906 1.53125 -6.546875 C 2.125 -7.210938 2.96875 -7.546875 4.0625 -7.546875 C 5.132812 -7.546875 5.96875 -7.207031 6.5625 -6.53125 C 7.164062 -5.851562 7.46875 -4.914062 7.46875 -3.71875 Z M 1.546875 -3.71875 C 1.546875 -2.71875 1.757812 -1.957031 2.1875 -1.4375 C 2.613281 -0.914062 3.238281 -0.65625 4.0625 -0.65625 C 4.882812 -0.65625 5.503906 -0.910156 5.921875 -1.421875 C 6.347656 -1.941406 6.5625 -2.707031 6.5625 -3.71875 C 6.5625 -4.71875 6.347656 -5.472656 5.921875 -5.984375 C 5.503906 -6.503906 4.882812 -6.765625 4.0625 -6.765625 C 3.238281 -6.765625 2.613281 -6.503906 2.1875 -5.984375 C 1.757812 -5.472656 1.546875 -4.71875 1.546875 -3.71875 Z M 1.546875 -3.71875 "/></g></g></g><g fill="#ffffff" fill-opacity="1"><g transform="translate(263.484852, 203.819459)"><g><path d="M 1.890625 -3.09375 L 1.890625 0 L 1.015625 0 L 1.015625 -7.421875 L 3.0625 -7.421875 C 3.96875 -7.421875 4.640625 -7.242188 5.078125 -6.890625 C 5.515625 -6.546875 5.734375 -6.023438 5.734375 -5.328125 C 5.734375 -4.347656 5.234375 -3.6875 4.234375 -3.34375 L 6.25 0 L 5.234375 0 L 3.4375 -3.09375 Z M 1.890625 -3.828125 L 3.0625 -3.828125 C 3.675781 -3.828125 4.125 -3.945312 4.40625 -4.1875 C 4.695312 -4.4375 4.84375 -4.800781 4.84375 -5.28125 C 4.84375 -5.769531 4.695312 -6.125 4.40625 -6.34375 C 4.113281 -6.5625 3.648438 -6.671875 3.015625 -6.671875 L 1.890625 -6.671875 Z M 1.890625 -3.828125 "/></g></g></g><g fill="#ffffff" fill-opacity="1"><g transform="translate(273.364399, 203.819459)"><g/></g></g><g fill="#ffffff" fill-opacity="1"><g transform="translate(279.514362, 203.819459)"><g><path d="M 2.90625 -3.71875 L 4.890625 -7.421875 L 5.828125 -7.421875 L 3.34375 -2.875 L 3.34375 0 L 2.46875 0 L 2.46875 -2.84375 L 0 -7.421875 L 0.9375 -7.421875 Z M 2.90625 -3.71875 "/></g></g></g><g fill="#ffffff" fill-opacity="1"><g transform="translate(288.789248, 203.819459)"><g><path d="M 7.46875 -3.71875 C 7.46875 -2.53125 7.164062 -1.59375 6.5625 -0.90625 C 5.96875 -0.226562 5.132812 0.109375 4.0625 0.109375 C 2.96875 0.109375 2.125 -0.222656 1.53125 -0.890625 C 0.9375 -1.566406 0.640625 -2.515625 0.640625 -3.734375 C 0.640625 -4.941406 0.9375 -5.878906 1.53125 -6.546875 C 2.125 -7.210938 2.96875 -7.546875 4.0625 -7.546875 C 5.132812 -7.546875 5.96875 -7.207031 6.5625 -6.53125 C 7.164062 -5.851562 7.46875 -4.914062 7.46875 -3.71875 Z M 1.546875 -3.71875 C 1.546875 -2.71875 1.757812 -1.957031 2.1875 -1.4375 C 2.613281 -0.914062 3.238281 -0.65625 4.0625 -0.65625 C 4.882812 -0.65625 5.503906 -0.910156 5.921875 -1.421875 C 6.347656 -1.941406 6.5625 -2.707031 6.5625 -3.71875 C 6.5625 -4.71875 6.347656 -5.472656 5.921875 -5.984375 C 5.503906 -6.503906 4.882812 -6.765625 4.0625 -6.765625 C 3.238281 -6.765625 2.613281 -6.503906 2.1875 -5.984375 C 1.757812 -5.472656 1.546875 -4.71875 1.546875 -3.71875 Z M 1.546875 -3.71875 "/></g></g></g><g fill="#ffffff" fill-opacity="1"><g transform="translate(300.340502, 203.819459)"><g><path d="M 6.625 -7.421875 L 6.625 -2.625 C 6.625 -1.78125 6.367188 -1.113281 5.859375 -0.625 C 5.347656 -0.132812 4.644531 0.109375 3.75 0.109375 C 2.851562 0.109375 2.160156 -0.132812 1.671875 -0.625 C 1.179688 -1.113281 0.9375 -1.785156 0.9375 -2.640625 L 0.9375 -7.421875 L 1.8125 -7.421875 L 1.8125 -2.578125 C 1.8125 -1.960938 1.976562 -1.488281 2.3125 -1.15625 C 2.65625 -0.820312 3.15625 -0.65625 3.8125 -0.65625 C 4.4375 -0.65625 4.914062 -0.820312 5.25 -1.15625 C 5.59375 -1.488281 5.765625 -1.96875 5.765625 -2.59375 L 5.765625 -7.421875 Z M 6.625 -7.421875 "/></g></g></g></svg>